# xmcd
#
# Track frame offsets: 
#        150
#        20359
#        38591
#        58946
#        80970
#        100212
#        112654
#        131950
#        148808
#        164586
#        180767
#
# Disc length: 2713 seconds
#
# Revision: 0
# Processed by: cddbd v1.5.2PL0 Copyright (c) Steve Scherf et al.
# Submitted via: ExactAudioCopy v0.99pb4
#
DISCID=930a970b
DTITLE=The Joint Chiefs - Back in the Day
DYEAR=2009
DGENRE=R&B
TTITLE0=Lovely Day
TTITLE1=Cut the Cake
TTITLE2=Breezin'
TTITLE3=Just the Two of Us
TTITLE4=Inner City Blues
TTITLE5=Groove Me
TTITLE6=Soulful Strut
TTITLE7=Express Yourself
TTITLE8=How Sweet it Is
TTITLE9=West Wide Worry
TTITLE10=If it Ain't One Thing it's Another
EXTD=
EXTT0=
EXTT1=
EXTT2=
EXTT3=
EXTT4=
EXTT5=
EXTT6=
EXTT7=
EXTT8=
EXTT9=
EXTT10=
PLAYORDER=
